<?xml version="1.0" encoding="UTF-8" standalone="no"?>
<!-- Created with Inkscape (http://www.inkscape.org/) -->

<svg
   xmlns:dc="http://purl.org/dc/elements/1.1/"
   xmlns:cc="http://creativecommons.org/ns#"
   xmlns:rdf="http://www.w3.org/1999/02/22-rdf-syntax-ns#"
   xmlns:svg="http://www.w3.org/2000/svg"
   xmlns="http://www.w3.org/2000/svg"
   xmlns:sodipodi="http://sodipodi.sourceforge.net/DTD/sodipodi-0.dtd"
   xmlns:inkscape="http://www.inkscape.org/namespaces/inkscape"
   width="210mm"
   height="210mm"
   viewBox="0 0 210 210"
   version="1.1"
   id="svg8"
   inkscape:version="0.92.3 (2405546, 2018-03-11)"
   sodipodi:docname="drawing.svg">
  <defs
     id="defs2" />
  <sodipodi:namedview
     id="base"
     pagecolor="#ffffff"
     bordercolor="#666666"
     borderopacity="1.0"
     inkscape:pageopacity="0.0"
     inkscape:pageshadow="2"
     inkscape:zoom="0.7"
     inkscape:cx="247.03288"
     inkscape:cy="524.25752"
     inkscape:document-units="mm"
     inkscape:current-layer="layer1"
     showgrid="false"
     inkscape:snap-grids="true"
     inkscape:snap-bbox="true"
     inkscape:pagecheckerboard="true"
     inkscape:window-width="1920"
     inkscape:window-height="986"
     inkscape:window-x="-11"
     inkscape:window-y="-11"
     inkscape:window-maximized="1" />
  <metadata
     id="metadata5">
    <rdf:RDF>
      <cc:Work
         rdf:about="">
        <dc:format>image/svg+xml</dc:format>
        <dc:type
           rdf:resource="http://purl.org/dc/dcmitype/StillImage" />
        <dc:title></dc:title>
      </cc:Work>
    </rdf:RDF>
  </metadata>
  <g
     inkscape:label="Layer 1"
     inkscape:groupmode="layer"
     id="layer1"
     transform="translate(0,-87)">
    <rect
       style="fill:#aa0044;stroke-width:0.29558954"
       id="rect4532"
       width="11.716453"
       height="166.19141"
       x="6.8035712"
       y="102.72023"
       ry="3.2042857e-014" />
    <rect
       style="fill:#aa0044;stroke-width:0.29558954"
       id="rect4532-4"
       width="11.716453"
       height="166.19141"
       x="190.50081"
       y="106.55541"
       ry="3.2042857e-014" />
    <rect
       style="fill:#aa0044;stroke-width:0.29558954"
       id="rect4551"
       width="189.13699"
       height="7.2442374"
       x="13.080244"
       y="272.74683"
       ry="3.2042857e-014" />
    <rect
       style="fill:#aa0044;stroke-width:0.29558954"
       id="rect4553"
       width="6.2766738"
       height="11.079422"
       x="6.8035712"
       y="268.91165"
       ry="3.2042857e-014" />
    <rect
       style="fill:#aa0044;stroke-width:0.29558954"
       id="rect4555"
       width="5.4397774"
       height="3.8351789"
       x="13.080244"
       y="268.91165"
       ry="3.2042857e-014" />
    <rect
       style="fill:#aa0044;stroke-width:0.29558954"
       id="rect4557"
       width="195.41367"
       height="3.8351874"
       x="6.8035712"
       y="102.72023"
       ry="3.2042857e-014" />
    <rect
       style="fill:#aa0044;stroke-width:0.29558954"
       id="rect4559"
       width="193.32147"
       height="10.653297"
       x="6.8035712"
       y="102.72023"
       ry="3.2042857e-014" />
    <rect
       style="fill:#aa0044;stroke-width:0.29558954"
       id="rect4561"
       width="171.98079"
       height="3.8351789"
       x="18.520023"
       y="268.91165"
       ry="3.2042857e-014" />
    <path
       style="fill:#aa0044;stroke-width:0.37255222"
       id="path4583"
       d="m 14.840549,221.32244 c 2.009178,0.31978 4.059486,-0.0604 6.053247,-0.49722 1.867651,-0.30319 3.701991,-0.87987 5.532815,-1.51303 0.260356,-0.11043 0.522608,-0.21052 0.781056,-0.33138 0.644555,-0.30139 0.892609,-0.44955 1.504704,-0.86831 0.242896,-0.16626 0.950796,-0.73093 0.722151,-0.52121 -6.301213,5.78009 -5.981165,5.48309 -4.034275,3.49087 1.349686,-1.33782 2.698964,-2.60355 3.909089,-4.24236 1.889003,-2.60888 3.59383,-5.51609 5.382814,-8.28604 1.193701,-1.86766 2.333814,-3.80946 3.624019,-5.51797 0.861702,-1.07999 1.736228,-2.14207 2.558535,-3.29535 1.23496,-1.55208 2.173235,-3.47579 2.913624,-5.64681 0.678785,-2.20188 0.890834,-4.57932 0.990143,-6.98747 0.09683,-3.1225 0.0627,-6.24889 0.04483,-9.37338 0.05254,-2.39803 -0.521468,-4.40888 -1.35901,-6.34891 -0.698938,-1.52474 -1.328191,-3.1235 -1.852398,-4.8112 -0.466179,-1.42347 -1.167347,-2.73621 -1.928481,-3.81248 -0.649368,-0.76964 -1.339409,-0.93519 -2.082416,-0.43615 -1.957343,2.05838 0.03869,-0.0587 4.736251,-4.15927 0.137099,-0.11971 -0.261902,0.27139 -0.387002,0.41969 -0.439432,0.52081 -0.827203,1.12354 -1.21342,1.73534 -0.883901,1.33391 -1.617458,2.86451 -2.36772,4.37507 -1.195767,2.17229 -1.640953,5.00164 -2.102858,7.70626 -0.846573,4.49691 -1.193362,9.14606 -1.54699,13.78195 -0.341299,4.25096 -0.455265,8.53302 -0.516983,12.81248 -0.149378,3.45024 0.163473,6.85321 0.606205,10.22323 0.58021,3.54413 1.065729,7.15557 1.995364,10.52533 0.925552,3.14101 2.749937,4.86355 4.59675,6.51528 1.826327,1.74573 3.905227,2.6563 5.953386,3.54254 2.081688,0.87503 4.223346,1.19651 6.368859,1.35227 2.34422,0.34453 4.637474,-0.44867 6.923208,-1.15241 3.290095,-1.00072 6.45717,-2.60682 9.525358,-4.68959 -1.097893,0.95186 -2.136227,2.09483 -3.293677,2.85557 -0.654041,0.42987 1.191343,-1.2058 1.767511,-1.85249 2.140504,-2.40259 3.999066,-5.16163 5.797985,-8.15385 2.054616,-3.62816 4.045347,-7.3299 6.163374,-10.86985 1.398825,-2.29924 2.8627,-4.51367 4.082306,-7.06077 1.142909,-2.38694 1.317622,-3.03535 2.281582,-5.63221 2.070909,-5.90085 2.656188,-12.61637 2.888993,-19.23828 0.154933,-5.65605 -0.999733,-10.9757 -2.415497,-16.09222 -0.656023,-1.91676 -1.150054,-4.08067 -2.196919,-5.59396 -0.267362,-0.38648 -0.639072,-0.72642 -0.945561,-1.03025 -0.907035,-0.78843 -1.934936,-0.78604 -2.943512,-0.82908 -2.333185,-0.0894 -5.605395,3.77558 3.435462,-3.91855 0.19478,-0.16572 -0.377954,0.36488 -0.55439,0.57481 -0.192676,0.22926 -0.367199,0.49348 -0.550801,0.74021 -1.478508,2.17544 -1.968365,4.29543 -2.350171,7.34255 -0.373733,4.46818 -0.365816,8.99221 -0.384312,13.4909 -0.02407,5.57045 -0.05819,11.14266 0.153281,16.70527 0.307935,2.92951 0.279831,5.99773 0.86842,8.83752 0.519938,2.05629 1.234245,3.91486 2.081667,5.67287 1.322187,2.50207 2.945514,4.59678 4.599768,6.54337 2.595965,3.13654 5.327372,6.01468 8.144873,8.64406 2.193364,2.13053 4.620544,3.44235 7.144714,4.18959 2.3845,0.58127 4.80423,0.62143 7.21215,0.63676 2.14249,0.13475 4.25627,-0.56178 6.3087,-1.45233 1.89525,-1.39963 6.32146,-4.12877 -2.28287,2.29404 -0.38569,0.28789 0.6821,-0.8064 1.00538,-1.24307 0.74076,-1.00063 1.24658,-1.8709 1.9256,-2.97133 2.28749,-3.37727 4.37734,-7.05009 6.47477,-10.70935 1.84858,-3.11557 3.73834,-6.1707 5.54973,-9.3398 1.50929,-2.90907 3.1321,-5.73175 4.31185,-9.01364 0.30799,-0.85681 0.56768,-1.75382 0.85152,-2.63071 1.96896,-7.56536 3.54063,-15.3873 4.81503,-23.3033 0.59426,-4.24041 1.08026,-8.52691 1.36161,-12.84778 0.10387,-1.59499 0.2419,-4.60444 0.17728,-6.30181 -0.0275,-0.72191 -0.13604,-1.43071 -0.20406,-2.14604 -0.26424,-1.5732 -0.54313,-3.36449 -1.41145,-4.42429 -0.2575,-0.31425 -0.5584,-0.53103 -0.83141,-0.81161 -0.86167,-0.65862 -1.83798,-1.16226 -2.80534,-0.9879 -0.12373,0.0348 -0.25081,0.0474 -0.37119,0.10399 -0.18201,0.0852 -0.7208,0.52535 -0.83592,0.6228 -0.19307,0.16346 -0.76329,0.67929 -0.5724,0.50965 4.96591,-4.4144 6.09717,-5.98534 4.01407,-3.28758 -1.62142,2.3613 -2.94589,5.13197 -4.08216,8.08986 -1.18042,3.46165 -2.27592,6.97217 -2.98588,10.73994 -0.74581,4.90782 -0.72718,9.99734 -0.77774,15.01213 -0.14761,5.47779 0.32815,10.86914 1.31938,16.11063 0.98823,4.87988 2.73617,9.15078 4.64864,13.24963 2.3318,4.66194 4.97169,8.94033 7.78601,12.89406 3.93322,5.56666 8.99957,8.16755 13.9246,10.79552 4.04828,1.95903 8.17142,3.58738 12.35927,4.634 2.39842,0.59939 3.38377,0.70579 5.7769,1.08995 4.49784,0.61598 9.01509,0.72436 13.52751,0.70431 2.00979,0.0266 4.02705,-0.0732 6.00759,-0.63925 1.75435,-0.69369 3.48473,-1.51997 5.23961,-2.20765 0.22592,-0.0747 0.45185,-0.14974 0.67775,-0.22447 0,0 -4.99544,5.92982 -4.99544,5.92982 v 0 c -0.21812,0.0788 -0.43623,0.15779 -0.65436,0.23677 -1.75743,0.71795 -3.50192,1.51773 -5.27578,2.13458 -1.97386,0.40962 -3.96277,0.4941 -5.95235,0.3791 -4.47037,-0.12182 -8.94388,-0.30139 -13.39726,-0.96663 -2.27399,-0.40338 -3.50659,-0.57784 -5.78457,-1.16591 -4.19451,-1.08279 -8.28852,-2.90047 -12.35702,-4.79514 -5.03327,-2.61889 -10.23892,-5.26649 -14.2652,-10.90722 -2.82157,-4.03732 -5.4761,-8.37934 -7.88313,-13.02752 -1.962,-4.17878 -3.7178,-8.57193 -4.73596,-13.54733 -0.44487,-2.31914 -0.60094,-2.92132 -0.89546,-5.30514 -0.45005,-3.64273 -0.50452,-7.39131 -0.47365,-11.08806 0.03,-5.05173 -0.071,-10.18119 0.59557,-15.15055 0.67524,-3.93342 1.75466,-7.30767 2.89828,-10.94483 1.09016,-3.03692 2.40942,-5.85544 3.98567,-8.32858 2.19391,-3.69198 0.47936,-1.01158 6.64941,-6.55106 0.61396,-0.55119 1.28255,-0.9349 1.99673,-0.9008 1.05886,0.1597 2.08695,0.61031 3.00095,1.48279 1.56032,1.6334 1.98957,3.16483 2.3754,6.06916 0.0625,0.77538 0.16812,1.5452 0.18747,2.3261 0.042,1.6952 -0.1482,4.90307 -0.26248,6.48301 -0.31557,4.36238 -0.79547,8.69556 -1.3942,12.98395 -0.22709,1.53077 -0.42799,3.07162 -0.68128,4.59236 -1.06053,6.36738 -2.54184,12.55335 -3.9088,18.76784 -0.26691,0.89689 -0.50906,1.81278 -0.80073,2.6907 -1.11129,3.34512 -2.70732,6.19084 -4.1967,9.12591 -1.80774,3.20934 -3.71188,6.28136 -5.59915,9.37585 -2.08389,3.65933 -4.15036,7.35371 -6.43562,10.71474 -0.53898,0.90383 -1.30677,2.22198 -1.8849,3.07028 -2.63728,3.86974 -5.96446,6.58968 -9.36774,8.44032 -2.10522,0.81357 -4.23949,1.45103 -6.42117,1.25817 -2.42272,-0.0781 -4.86087,-0.13805 -7.252056,-0.81365 -2.567774,-0.8526 -5.010629,-2.29543 -7.2403,-4.49384 -2.799867,-2.71749 -5.510921,-5.67188 -8.161638,-8.72943 -1.729131,-1.96356 -3.452471,-4.06429 -4.803196,-6.67314 -0.896202,-1.83956 -1.631091,-3.80184 -2.183955,-5.95462 -0.622292,-2.93443 -0.567526,-6.11105 -0.84145,-9.15246 -0.146665,-5.59501 -0.09582,-11.18983 -0.120019,-16.78862 -0.0018,-4.51896 -0.08433,-9.05602 0.23689,-13.556 0.30467,-3.17468 0.686564,-5.47815 2.130604,-7.87074 2.218313,-3.63664 5.263964,-7.23167 8.573363,-6.85893 1.108315,0.10068 2.196137,0.26641 3.1385,1.28035 1.712031,1.93068 2.330868,4.27931 3.173886,7.24503 1.381905,5.27683 2.671068,10.71183 2.497804,16.51067 -0.190195,5.48404 -0.614973,11.58087 -1.903353,16.72591 -0.252595,1.00873 -0.600123,1.95302 -0.900185,2.92953 -0.352828,0.99832 -0.682467,2.01745 -1.058486,2.99493 -1.399817,3.63881 -3.162456,6.82238 -5.086563,9.80342 -0.910759,1.48255 -1.851652,2.94316 -2.725756,4.47815 -1.209941,2.12474 -2.298097,4.41857 -3.56621,6.46489 -0.756775,1.28975 -1.876614,3.25208 -2.701055,4.44229 -3.510753,5.06827 -7.733472,8.67992 -11.90749,12.21601 -3.128623,2.06036 -6.362726,3.63547 -9.701283,4.64487 -2.331989,0.6926 -4.66674,1.39224 -7.053196,1.00771 -2.169664,-0.20616 -4.325243,-0.62264 -6.423743,-1.54867 -2.095027,-0.90657 -4.202556,-1.89098 -6.046584,-3.74398 -1.945295,-1.79572 -3.847814,-3.69666 -4.820302,-7.02942 -0.931372,-3.44113 -1.403756,-7.11918 -2.026454,-10.71575 -0.469763,-3.42861 -0.866502,-6.89432 -0.684081,-10.41574 0.09355,-4.31487 0.240278,-8.6288 0.529636,-12.92376 0.377505,-4.65313 0.715323,-9.31953 1.483362,-13.8685 0.425131,-2.76105 0.816605,-5.68018 1.88497,-8.03384 0.826384,-1.42039 1.438482,-3.13184 2.36893,-4.41717 1.959982,-3.66101 4.843865,-6.3622 7.692805,-7.78817 0.924905,-0.12164 1.722524,0.27788 2.422813,1.26265 0.782305,1.21769 1.547738,2.581 2.030924,4.13521 0.49656,1.66357 1.145364,3.18438 1.804797,4.69954 0.863748,2.10921 1.525242,4.30733 1.494792,6.87569 -0.0033,3.1398 -0.0054,6.27998 -0.02666,9.41951 -0.06395,2.52302 -0.217279,5.00085 -0.884772,7.34198 -0.638654,2.24463 -1.52167,4.39186 -2.779249,5.91348 -0.755344,1.29513 -1.693824,2.29495 -2.555315,3.40686 -1.366831,1.61385 -2.520837,3.58106 -3.721454,5.48047 -1.823402,2.70136 -3.485295,5.65706 -5.34966,8.29212 -0.405167,0.61872 -0.816585,1.29618 -1.272956,1.83386 -0.807461,0.95135 -1.740511,1.60843 -2.570472,2.506 -2.932983,3.43175 -6.184184,6.44116 -9.775014,7.71587 -1.829221,0.60877 -3.670993,1.08269 -5.530762,1.40444 -2.061685,0.36942 -4.151581,0.72223 -6.2251797,0.40551 0,0 5.1477477,-5.70348 5.1477477,-5.70348 z"
       inkscape:connector-curvature="0" />
  </g>
</svg>
